PathFileType	4	(X/Y/Z)	c:/Users/goper/Files/vsCode/490R/osim_files/C07/C07_Slow_06.trc
DataRate	CameraRate	NumFrames	NumMarkers	Units                	OrigDataRate	OrigDataStartFrame	OrigNumFrames
250.00	250.00	6	36	mm	250.0	1526	3051
                Frame#	Time	LPSIS			LASIS			LTH1			LTH2			LTH3			LTH4			LLFE			LMFE			LSH1			LSH2			LSH3			LSH4			LLMAL			LMMAL			LCAL			LMTP5			LTOE			LMTP1			RPSIS			RASIS			RTH1			RTH2			RTH3			RTH4			RLFE			RMFE			RSH1			RSH2			RSH3			RSH4			RLMAL			RMMAL			RCAL			RMTP1			RTOE			RMTP5		
		X1	Y1	Z1	X2	Y2	Z2	X3	Y3	Z3	X4	Y4	Z4	X5	Y5	Z5	X6	Y6	Z6	X7	Y7	Z7	X8	Y8	Z8	X9	Y9	Z9	X10	Y10	Z10	X11	Y11	Z11	X12	Y12	Z12	X13	Y13	Z13	X14	Y14	Z14	X15	Y15	Z15	X16	Y16	Z16	X17	Y17	Z17	X18	Y18	Z18	X19	Y19	Z19	X20	Y20	Z20	X21	Y21	Z21	X22	Y22	Z22	X23	Y23	Z23	X24	Y24	Z24	X25	Y25	Z25	X26	Y26	Z26	X27	Y27	Z27	X28	Y28	Z28	X29	Y29	Z29	X30	Y30	Z30	X31	Y31	Z31	X32	Y32	Z32	X33	Y33	Z33	X34	Y34	Z34	X35	Y35	Z35	X36	Y36	Z36

1526	6.10000	-1986.97473	1004.57709	323.27359	-2163.56348	980.17938	395.12552	-2076.89771	789.01373	443.67648	-2076.63672	709.86713	440.11258	-2074.99097	635.09583	423.18787	-2153.27710	714.54694	412.54950	-2034.49841	513.11981	397.92670	-2028.46936	503.37109	277.57297	-1983.07922	323.98849	401.72870	-1961.77795	283.06616	384.63080	-2021.86707	326.78003	387.06311	-2013.83728	282.41251	377.99573	-1937.29822	105.77740	334.15228	-1965.40271	129.39185	263.36658	-1876.90540	46.66289	284.45947	-2056.78638	36.16344	364.60300	-2114.99097	48.01198	313.68408	-2087.02881	38.89545	260.12054	-1984.29919	1007.85266	224.10783	-2140.78882	983.59863	142.54546	-2135.36255	834.94507	76.26417	-2164.34399	762.92181	67.51979	-2195.44336	685.92377	67.34528	-2232.96118	787.40399	97.88029	-2253.97070	523.48157	89.14039	-2262.32397	525.21143	204.98096	-2209.69751	339.74191	69.98495	-2242.76392	294.92795	61.89646	-2269.74585	348.71506	66.87930	-2273.22949	303.21091	67.53380	-2241.29004	114.40941	92.75820	-2280.66772	127.55212	166.91179	-2203.80859	57.44576	146.34111	-2414.86646	65.12408	154.74553	-2431.06030	77.07703	102.92255	-2382.26880	49.05755	51.08729
1527	6.10400	-1990.40430	1004.06403	323.05304	-2166.53149	979.75439	395.05383	-2079.61938	788.86847	443.83249	-2079.06372	709.75415	440.16312	-2077.24536	635.07758	423.19376	-2155.64185	714.33405	412.45224	-2036.37158	513.11755	397.77560	-2030.43213	503.37869	277.40015	-1984.19226	324.19925	401.69058	-1962.90356	283.21924	384.49854	-2023.08545	326.80133	387.00076	-2014.98242	282.53262	377.93146	-1937.54297	106.05167	334.06647	-1965.69800	129.49585	263.29800	-1877.03564	46.80079	284.38898	-2056.87720	36.22045	364.58191	-2115.07544	48.01877	313.70206	-2087.03711	38.86757	260.09149	-1987.89355	1007.32721	223.83824	-2144.42554	983.20435	142.39719	-2137.29443	834.02313	75.67729	-2166.36743	762.14850	67.29819	-2197.02930	684.66302	66.84373	-2235.34717	785.99603	96.92764	-2255.39819	522.40472	88.79757	-2264.42480	524.11017	204.75233	-2215.13867	337.92703	69.33818	-2249.15674	293.74707	61.27631	-2275.13599	348.14999	66.53661	-2279.39209	302.63040	67.00706	-2251.36914	113.03384	91.73515	-2290.16699	126.93057	166.24869	-2214.54858	55.36693	144.95511	-2425.45825	67.01414	155.22844	-2442.04663	79.05882	102.91975	-2393.71240	49.64564	51.12092
1528	6.10800	-1993.91052	1003.45734	322.74448	-2169.90381	979.44745	395.03171	-2082.24854	788.79303	444.06122	-2081.54053	709.67242	440.26480	-2079.39453	634.98230	423.19199	-2157.83350	713.94342	412.31113	-2038.23120	513.17657	397.64923	-2032.21692	503.32376	277.24887	-1985.34937	324.33652	401.56860	-1963.85022	283.28360	384.44928	-2024.11816	326.75076	386.87875	-2015.93396	282.54025	377.86807	-1937.73254	106.31333	333.97006	-1966.03723	129.65205	263.17075	-1877.11523	46.93907	284.30811	-2056.95117	36.30958	364.60556	-2115.15308	47.94884	313.73111	-2087.03979	38.79975	260.01031	-1991.49805	1006.74213	223.57719	-2148.06860	982.80994	142.23302	-2138.73999	833.03186	75.17322	-2168.50781	761.40527	67.07832	-2198.57788	683.53741	66.12309	-2237.82349	784.46411	96.11547	-2257.10498	521.32227	88.49146	-2266.11011	522.87817	204.59622	-2220.46118	336.20102	68.77048	-2255.50000	292.58432	60.73582	-2280.36548	347.57858	66.11568	-2285.35498	302.06104	66.39526	-2261.29297	111.74766	90.76530	-2297.48706	125.47295	164.61072	-2225.13037	53.36839	143.60851	-2436.50415	69.25702	156.38699	-2452.34692	81.51270	104.30524	-2405.50146	52.19519	51.17285
1529	6.11200	-1997.31421	1002.89935	322.38745	-2173.29663	979.13098	394.97116	-2084.62988	788.57965	444.20825	-2083.96289	709.50787	440.28455	-2081.41260	634.84290	423.10571	-2160.01758	713.59375	412.24957	-2039.98291	513.09747	397.44995	-2034.12146	503.26865	277.04657	-1986.41064	324.45990	401.41684	-1964.69934	283.71109	384.27066	-2025.29199	326.71960	386.78360	-2016.76160	282.45767	377.73013	-1937.87537	106.53394	333.87595	-1966.29602	129.80276	263.02969	-1877.14783	47.05342	284.21875	-2056.94165	36.27137	364.57779	-2115.16406	47.91542	313.70975	-2087.03809	38.72160	259.92950	-1995.05066	1006.20880	223.26982	-2151.84985	982.39911	142.01001	-2142.45264	832.24603	74.99927	-2170.76221	760.69165	66.85988	-2200.20435	682.22540	65.63986	-2240.15015	782.96161	95.25624	-2258.97729	520.12280	88.30190	-2267.90723	521.70325	204.31454	-2225.65552	334.56580	68.29094	-2261.55176	291.54486	60.12588	-2285.43188	347.05453	65.67915	-2291.29248	301.61862	65.91421	-2270.99512	110.67751	89.92049	-2306.28442	125.04924	164.00793	-2235.42993	51.66638	142.25119	-2445.53442	70.91841	156.39948	-2462.45679	83.80362	105.10056	-2416.65527	53.66000	51.48730
1530	6.11600	-2000.83130	1002.26581	322.05487	-2176.36401	978.73798	394.87350	-2087.35229	788.42993	444.40601	-2086.33032	709.38330	440.33987	-2083.52344	634.68848	423.00607	-2162.35376	713.28357	412.10486	-2041.79480	513.08521	397.27017	-2036.08984	503.21951	276.82401	-1987.50208	324.54507	401.29898	-1965.65027	283.59613	384.15399	-2026.25000	326.59686	386.62973	-2017.72864	282.44525	377.59879	-1938.00281	106.79730	333.75446	-1966.55066	129.95694	262.88901	-1877.18774	47.15587	284.16016	-2056.84448	36.16472	364.56140	-2115.10767	47.78590	313.69962	-2087.08545	38.68842	259.88052	-1998.61646	1005.59058	222.85277	-2155.60327	981.92657	141.77704	-2145.20386	831.44482	74.77151	-2173.12671	760.00720	66.64268	-2202.14990	681.17987	64.79858	-2242.68677	781.54535	94.59966	-2261.01709	519.01965	88.08371	-2269.68237	520.39246	204.15523	-2230.71143	333.02328	67.90866	-2267.50171	290.59146	59.53488	-2290.45190	346.52969	65.28802	-2297.00659	301.12082	65.39532	-2279.51245	110.34808	88.19984	-2314.90356	124.58047	163.46121	-2245.61206	49.86793	141.10921	-2455.09937	73.05807	157.04597	-2472.37305	86.24482	105.86917	-2427.57544	55.23447	51.85048
1531	6.12000	-2003.45068	1001.39795	321.75409	-2179.62354	978.34637	394.78781	-2090.17578	788.31006	444.53079	-2088.68433	709.20703	440.27621	-2085.65894	634.49976	422.88510	-2165.00830	713.01941	412.02121	-2043.61304	512.90173	397.09103	-2038.03394	503.12161	276.58408	-1988.57153	324.60516	401.11960	-1966.54492	283.92972	384.06583	-2027.44470	326.51001	386.44379	-2018.61499	282.40686	377.51193	-1938.20691	107.06262	333.64993	-1966.79626	130.08931	262.74493	-1877.27600	47.30047	284.10617	-2056.76807	36.05140	364.51794	-2115.12231	47.67928	313.70898	-2087.09839	38.62993	259.82123	-2002.22534	1004.94861	222.50885	-2159.25073	981.43451	141.53914	-2148.03418	830.66650	74.45489	-2175.59863	759.35150	66.42645	-2204.03271	680.09143	64.14578	-2245.24609	780.05426	93.99983	-2262.95337	517.90295	87.95703	-2271.33057	519.04059	203.87447	-2235.61890	331.57532	67.63275	-2273.36060	289.67477	59.01928	-2295.29517	346.00952	64.85859	-2300.91309	301.83218	63.70721	-2288.20264	109.58826	87.21400	-2323.26416	124.24543	162.93839	-2255.53442	48.39382	140.02156	-2464.35645	75.18872	157.76299	-2481.86572	88.65815	106.78668	-2438.11670	56.91131	52.25023
